<?xml version="1.0" encoding="UTF-8"?>
<svg xmlns="http://www.w3.org/2000/svg" version="1.1" viewBox="0 0 100 100">
  <defs>
    <style>
      .cls-1 {
        fill: url(#grad1);
      }

      .cls-2 {
        fill: url(#grad2);
      }

      .cls-3 {
        fill: #00acc1;
      }
    </style>
    <linearGradient id="grad1" x1="0%" y1="0%" x2="100%" y2="100%">
      <stop offset="0%" style="stop-color:#80deea;stop-opacity:1" />
      <stop offset="100%" style="stop-color:#26c6da;stop-opacity:1" />
    </linearGradient>
    <linearGradient id="grad2" x1="0%" y1="0%" x2="100%" y2="100%">
      <stop offset="0%" style="stop-color:#e0f7fa;stop-opacity:1" />
      <stop offset="100%" style="stop-color:#b2ebf2;stop-opacity:1" />
    </linearGradient>
  </defs>
  <g>
    <circle class="cls-1" cx="50" cy="50" r="45"/>
    <circle class="cls-2" cx="50" cy="50" r="35"/>
  </g>
  <g>
    <path class="cls-3" d="M36.2,69.1c-1.4,0-2.5-.5-3.4-1.4-.9-.9-1.3-2-1.3-3.3s.5-2.5,1.4-3.3c.9-.9,2-1.3,3.4-1.3s2.5.4,3.4,1.3,1.3,2,1.3,3.3-.4,2.5-1.3,3.4c-.9.9-2,1.3-3.4,1.3ZM40.5,31.6l-1,25h-6.6l-1-25h8.5Z"/>
    <path class="cls-3" d="M53.1,57.8c-.2-.5-.3-1-.4-1.6-.1-.6-.2-1.2-.2-1.7,0-1.6.3-2.9.9-4,.6-1.1,1.4-2.1,2.6-3.1.7-.6,1.2-1.1,1.7-1.5.5-.4.9-.9,1.3-1.4.4-.4.7-.9.9-1.5.3-.6.4-1.2.4-1.8,0-1.1-.3-1.9-1-2.5-.7-.6-1.5-1-2.6-1s-1.9.3-2.6.8-1.5,1.4-2.1,2.5l-6.1-3.3c1.1-2,2.6-3.7,4.7-4.9,2-1.3,4.4-1.9,7.1-1.9s5.8.9,7.8,2.8,3,4,3,6.5-.1,2-.4,2.9-.6,1.7-1.2,2.5c-.5.7-1.1,1.4-1.8,2.1s-1.5,1.4-2.4,2.1c-1.2.9-2.1,1.8-2.7,2.5-.6.7-.9,1.6-.9,2.5s0,.6,0,.9.1.5.2.7l-6.4,1.4ZM56.8,69.1c-1.4,0-2.5-.5-3.4-1.4-.9-.9-1.3-2-1.3-3.3s.5-2.5,1.4-3.3c.9-.9,2-1.3,3.4-1.3s2.5.4,3.4,1.3c.9.9,1.3,2,1.3,3.3s-.4,2.5-1.3,3.4c-.9.9-2,1.3-3.4,1.3Z"/>
  </g>
</svg>
