<?xml version="1.0" encoding="UTF-8"?>
<svg xmlns="http://www.w3.org/2000/svg" version="1.1" viewBox="0 0 200 200">
  <defs>
    <style>
      .cls-1 {
        fill: #fff;
      }
    </style>
  </defs>
  <!-- Generator: Adobe Illustrator 28.6.0, SVG Export Plug-In . SVG Version: 1.2.0 Build 709)  -->
  <g>
    <g id="Layer_1">
      <g id="lockup4-icon">
        <path class="cls-1" d="M181.3,55.2h0S114.2,10.7,114.2,10.7c-.9-.6-2-.8-3-.6l-74.4,15.7c-1.5.3-2.7,1.5-3,3l-.4,2c-.4,1.6.3,3.2,1.7,4.1l31.2,20.6-1.3,5.8c-11.3,8.4-18.6,21.8-18.6,37,0,25.5,20.7,46.3,46.2,46.3s46.3-20.7,46.3-46.3-1-10.7-2.8-15.6c.7-.9,1.2-1.8,1.4-2.8l1.5-7,20.1-4.2c2.5,3.5,4.1,7.8,4.5,13.3-2.1,1.1-3.5,3.2-3.5,5.6s1,3.9,2.5,5c-1.7,8.8-4,25,.6,32.2,1.4,2.1,3.3,3.5,5.5,3.9,1.6.2,3-.9,3.2-2.5.2-1.4-.7-2.8-2.1-3.1-.5-.1-1.1-.3-1.8-1.4-1.6-2.5-2-7.5-1.7-13.2,1.4,4.4,3.6,8.3,6.9,10.5,1.4.8,3.1.3,3.9-1,.7-1.2.4-2.9-.8-3.7-4.5-2.9-6.4-13-6.8-21.2,1.9-1.1,3.3-3.1,3.3-5.5s-1.5-4.6-3.6-5.7c-.4-5.8-1.9-10.6-4.2-14.5l14.5-3.1c1.5-.3,2.7-1.5,3-3l.4-2c.4-1.6-.3-3.2-1.7-4.1ZM113.5,43.1c0,.5-.6.9-1.5,1.1-1.9.4-4.9-.2-6.7-1.4-.9-.6-1.3-1.2-1.2-1.7l.3-1.4c0-.5.6-.9,1.6-1.1,1.9-.4,4.9.2,6.7,1.4.9.6,1.3,1.2,1.2,1.7l-.3,1.4ZM92.5,153.6c-28,0-52.5,18.7-65.6,46.4h131.2c-13.1-27.7-37.6-46.4-65.6-46.4Z"/>
      </g>
    </g>
  </g>
</svg>