<?xml version="1.0" encoding="UTF-8"?>
<svg xmlns="http://www.w3.org/2000/svg" version="1.1" viewBox="0 0 145 145">
  <defs>
    <style>
      .cls-1 {
        fill: #e4b692;
      }

      .cls-2 {
        fill: #fff;
      }

      .cls-3 {
        fill: #0097a7;
      }

      .cls-4 {
        fill: #303030;
      }

      .cls-5 {
        fill: #ddac8c;
        isolation: isolate;
        opacity: .1;
      }

      .cls-6 {
        fill: #f1c9a5;
      }

      .cls-7 {
        fill: #00acc1;
      }
    </style>
  </defs>
  <!-- Generator: Adobe Illustrator 28.6.0, SVG Export Plug-In . SVG Version: 1.2.0 Build 709)  -->
  <g>
    <g id="Layer_1">
      <g id="Layer_1-2" data-name="Layer_1">
        <g id="Layer_1-2">
          <circle class="cls-2" cx="72.5" cy="72.5" r="58"/>
          <g id="men_3">
            <g>
              <g>
                <g>
                  <path class="cls-6" d="M110.9,114.2c-5.2-9.8-38.4-15.9-38.4-15.9,0,0-33.2,6.1-38.4,15.9-3.8,13.5-7,30.8-7,30.8h90.6s-2.2-18.5-7-30.8h.2Z"/>
                  <path class="cls-1" d="M72.5,98.3s33.2,6.1,38.4,15.9c4.9,12.3,7,30.8,7,30.8h-45.3v-46.7h-.1Z"/>
                  <rect class="cls-6" x="63.5" y="78.5" width="18.1" height="30.2"/>
                  <rect class="cls-1" x="72.5" y="78.5" width="9" height="30.2"/>
                  <path class="cls-5" d="M63.5,92.5c1.7,4.7,8.2,7.4,13,7.4s3.4-.3,5.1-.8v-20.5h-18.1v14h0Z"/>
                  <path class="cls-6" d="M95.7,59.5c0-18.9-10.4-29.6-23.2-29.6s-23.2,10.7-23.2,29.6,10.4,34.2,23.2,34.2,23.2-9.9,23.2-34.2Z"/>
                  <path class="cls-1" d="M92.1,72.5c-4.2-.4-7.1-5-6.3-10.1.7-5.2,4.7-8.9,8.9-8.5,4.2.4,7.1,5,6.3,10.1-.7,5.2-4.7,8.9-8.9,8.5Z"/>
                  <path class="cls-6" d="M44.1,63.9c-.7-5.2,2.1-9.7,6.3-10.1s8.2,3.4,8.9,8.5c.7,5.2-2.2,9.7-6.3,10.1-4.2.4-8.2-3.4-8.9-8.5Z"/>
                  <path class="cls-1" d="M95.7,59.5c0-18.9-10.4-29.6-23.2-29.6v63.8c12.8,0,23.2-9.9,23.2-34.2Z"/>
                </g>
                <path class="cls-4" d="M93.4,75.3c-1.2,3.5-3.3,7.7-7.2,7.7s-8.2-3.8-13.6-3.8,0,0,0,0h0c-5.5,0-8.8,3.8-13.6,3.8s-5.9-4.3-7.2-7.7l-1-6.8v8.1s1.8,9.6,5.3,11.8c2.8,2.5,12.1,6.9,16.6,6.9h0c4.6,0,13.8-4.4,16.6-6.9,3.4-2.3,5.3-11.8,5.3-11.8v-8.1l-1,6.8h-.2Z"/>
                <path class="cls-2" d="M76.2,85.1s-.5-2.5-3.7-2.5-3.7,2.5-3.7,2.5h7.6-.2Z"/>
              </g>
              <path class="cls-4" d="M86.6,40.8s-2,6.1-15.8,12.2-19.9,8-18.8,14.1c-5.9-10.8-3.7-40.7,19.3-40.7s17.5,10.6,15.2,14.6h0v-.2Z"/>
              <path class="cls-4" d="M95.6,55.8s-8-14.1-13.7-14.8c2.5-8.1,5.8-7.6,5.8-7.6,0,0,9,1.7,7.9,22.3h0Z"/>
            </g>
          </g>
        </g>
      </g>
      <path class="cls-7" d="M72.9,130.8v14.3H27.2s3.2-17.3,7-30.8c3-5.7,15.5-10.2,25.5-12.9l3.7,8.3,9.5,21.1Z"/>
      <path class="cls-3" d="M117.8,145.1h-44.9v-14.3l10.1-22.7s2.4-8.2,2.4-6.8c9.9,2.7,22.5,7.2,25.5,12.9h-.2c0,0,0,0,0,0,4.8,12.3,7,30.8,7,30.8Z"/>
    </g>
  </g>
</svg>