<?xml version="1.0" encoding="UTF-8"?>
<svg xmlns="http://www.w3.org/2000/svg" version="1.1" viewBox="0 0 145 145">
  <defs>
    <style>
      .cls-1 {
        fill: #e4b692;
      }

      .cls-2 {
        fill: #fff;
      }

      .cls-3 {
        fill: #303030;
      }

      .cls-4 {
        fill: #ddac8c;
        isolation: isolate;
        opacity: .1;
      }

      .cls-5 {
        fill: #f1c9a5;
      }

      .cls-6 {
        fill: #1f3a4d;
      }
    </style>
  </defs>
  <!-- Generator: Adobe Illustrator 28.6.0, SVG Export Plug-In . SVG Version: 1.2.0 Build 709)  -->
  <g>
    <g id="Layer_1">
      <circle class="cls-2" cx="72.5" cy="72.5" r="58"/>
      <path class="cls-2" d="M0,0v145h145V0H0ZM72.5,145C34.1,145,0,110.9,0,72.5S34.1,0,72.5,0s72.5,34.1,72.5,72.5-34.1,72.5-72.5,72.5Z"/>
      <g id="men_3">
        <g>
          <g>
            <g>
              <path class="cls-5" d="M109.4,115.4c-5-9.4-36.9-15.3-36.9-15.3,0,0-31.9,5.9-36.9,15.3-3.7,13-6.7,29.6-6.7,29.6h87.2s-2.1-17.8-6.7-29.6Z"/>
              <path class="cls-1" d="M72.5,100.1s31.9,5.9,36.9,15.3c4.7,11.8,6.7,29.6,6.7,29.6h-43.6v-44.9Z"/>
              <rect class="cls-5" x="63.8" y="81" width="17.4" height="29.1"/>
              <rect class="cls-1" x="72.5" y="81" width="8.7" height="29.1"/>
              <path class="cls-4" d="M63.8,94.5c1.6,4.5,7.9,7.1,12.5,7.1s3.3-.3,4.9-.8v-19.7h-17.4v13.5Z"/>
              <path class="cls-5" d="M94.8,62.7c0-18.2-10-28.5-22.3-28.5s-22.3,10.3-22.3,28.5,10,32.9,22.3,32.9,22.3-9.5,22.3-32.9Z"/>
              <path class="cls-1" d="M91.4,75.2c-4-.4-6.8-4.8-6.1-9.7.7-5,4.5-8.6,8.6-8.2,4,.4,6.8,4.8,6.1,9.7-.7,5-4.5,8.6-8.6,8.2Z"/>
              <path class="cls-5" d="M45.2,67c-.7-5,2-9.3,6.1-9.7,4.1-.4,7.9,3.3,8.6,8.2.7,5-2.1,9.3-6.1,9.7-4,.4-7.9-3.3-8.6-8.2Z"/>
              <path class="cls-1" d="M94.8,62.7c0-18.2-10-28.5-22.3-28.5v61.4c12.3,0,22.3-9.5,22.3-32.9Z"/>
            </g>
            <path class="cls-3" d="M92.6,77.9c-1.2,3.4-3.2,7.4-6.9,7.4s-7.9-3.7-13.1-3.7,0,0,0,0,0,0,0,0c-5.3,0-8.5,3.7-13.1,3.7s-5.7-4.1-6.9-7.4l-1-6.5v7.8s1.7,9.2,5.1,11.4c2.7,2.4,11.6,6.6,16,6.6h0s0,0,0,0,0,0,0,0h0c4.4,0,13.3-4.2,16-6.6,3.3-2.2,5.1-11.4,5.1-11.4v-7.8l-1,6.5Z"/>
            <path class="cls-2" d="M76.1,87.4s-.5-2.4-3.6-2.4-3.6,2.4-3.6,2.4h7.3Z"/>
          </g>
          <path class="cls-3" d="M86.1,44.7s-1.9,5.9-15.2,11.7-19.1,7.7-18.1,13.6c-5.7-10.4-3.6-39.2,18.6-39.2s16.8,10.2,14.6,14Z"/>
          <path class="cls-3" d="M94.7,59.2s-7.7-13.6-13.2-14.2c2.4-7.8,5.6-7.3,5.6-7.3,0,0,8.7,1.6,7.6,21.5Z"/>
          <path class="cls-6" d="M109.4,115.4c-2.9-5.5-15-9.8-24.5-12.4,0-1.3-2.3,6.5-2.3,6.5l-9.7,21.8-9.1-20.3-3.6-8c-9.6,2.6-21.6,6.9-24.5,12.4-3.7,13-6.7,29.6-6.7,29.6h87.2s-2.1-17.8-6.7-29.6Z"/>
        </g>
      </g>
    </g>
  </g>
</svg>