<?xml version="1.0" encoding="UTF-8"?>
<svg xmlns="http://www.w3.org/2000/svg" version="1.1" viewBox="0 0 911.6 451.4">
  <defs>
    <style>
      .cls-1 {
        fill: #3f3d56;
      }

      .cls-2 {
        fill: #ffffff;
      }

      .cls-3 {
        fill: #00acc1;
      }
    </style>
  </defs>
  <!-- Generator: Adobe Illustrator 28.6.0, SVG Export Plug-In . SVG Version: 1.2.0 Build 709)  -->
  <g>
    <g id="Layer_1">
      <path class="cls-2" d="M522.7,441.7c-11.8,0-21.3-9.5-21.3-21.3,0-11.7,9.5-21.3,21.3-21.3h316.1c-3.2-5.9-9.5-9.6-16.2-9.7H194.2c-17.1,0-30.9,13.9-30.9,30.9,0,17.1,13.8,30.9,30.9,30.9h628.4c6.8,0,13-3.7,16.2-9.7h-316.1Z"/>
      <path class="cls-2" d="M839.3,410.9h-300.6c-1,0-1.7-.8-1.7-1.7,0-1,.8-1.7,1.7-1.7h300.6c1,0,1.7.8,1.7,1.7,0,1-.8,1.7-1.7,1.7Z"/>
      <path class="cls-2" d="M839.3,422.2h-300.6c-1,0-1.7-.8-1.7-1.7,0-1,.8-1.7,1.7-1.7h300.6c1,0,1.7.8,1.7,1.7,0,1-.8,1.7-1.7,1.7Z"/>
      <path class="cls-2" d="M839.3,433.5h-300.6c-1,0-1.7-.8-1.7-1.7,0-1,.8-1.7,1.7-1.7h300.6c1,0,1.7.8,1.7,1.7,0,1-.8,1.7-1.7,1.7Z"/>
      <path class="cls-3" d="M441,381.8c-11.8,0-21.3-9.5-21.3-21.3,0-11.7,9.5-21.3,21.3-21.3h316.1c-3.2-5.9-9.5-9.6-16.2-9.7H112.6c-17.1,0-30.9,13.9-30.9,30.9,0,17.1,13.8,30.9,30.9,30.9h628.4c6.8,0,13-3.7,16.2-9.7h-316.1Z"/>
      <path class="cls-2" d="M757.6,351h-300.6c-1,0-1.7-.8-1.7-1.7,0-1,.8-1.7,1.7-1.7h300.6c1,0,1.7.8,1.7,1.7s-.8,1.7-1.7,1.7h0Z"/>
      <path class="cls-2" d="M757.6,362.2h-300.6c-1,0-1.7-.8-1.7-1.7,0-1,.8-1.7,1.7-1.7h300.6c1,0,1.7.8,1.7,1.7s-.8,1.7-1.7,1.7h0Z"/>
      <path class="cls-2" d="M757.6,373.5h-300.6c-1,0-1.7-.8-1.7-1.7,0-1,.8-1.7,1.7-1.7h300.6c1,0,1.7.8,1.7,1.7,0,1-.8,1.7-1.7,1.7h0Z"/>
      <path class="cls-2" d="M359.4,319.9c-11.8,0-21.3-9.5-21.3-21.3,0-11.7,9.5-21.3,21.3-21.3h316.1c-3.2-5.9-9.5-9.6-16.2-9.7H30.9c-17.1,0-30.9,13.9-30.9,30.9,0,17.1,13.8,30.9,30.9,30.9h628.4c6.8,0,13-3.7,16.2-9.7h-316.1Z"/>
      <path class="cls-2" d="M675.9,289h-300.6c-1,0-1.7-.8-1.7-1.7s.8-1.7,1.7-1.7h300.6c1,0,1.7.8,1.7,1.7s-.8,1.7-1.7,1.7Z"/>
      <path class="cls-2" d="M675.9,300.3h-300.6c-1,0-1.7-.8-1.7-1.7s.8-1.7,1.7-1.7h300.6c1,0,1.7.8,1.7,1.7s-.8,1.7-1.7,1.7h0Z"/>
      <path class="cls-2" d="M675.9,311.6h-300.6c-1,0-1.7-.8-1.7-1.7,0-1,.8-1.7,1.7-1.7h300.6c1,0,1.7.8,1.7,1.7s-.8,1.7-1.7,1.7h0Z"/>
      <path class="cls-3" d="M682.9,187.7c-3.4,0-6.3-2.7-6.5-6.1l-1-14.7c-.2-3.6,2.5-6.7,6.1-6.9l115.4-7.6c7.6-.5,14.3,5.3,14.8,12.9.5,7.6-5.3,14.3-12.9,14.8l-115.4,7.6c-.1,0-.3,0-.4,0Z"/>
      <path class="cls-1" d="M705.6,189.6c-3.5,0-6.4-2.8-6.5-6.3l-.8-22c-.1-3.6,2.7-6.6,6.3-6.7,0,0,0,0,0,0l94.9-3.5c3.6-.1,6.6,2.7,6.7,6.3l.8,22c.1,3.6-2.7,6.6-6.3,6.7,0,0,0,0,0,0l-94.9,3.5c0,0-.2,0-.2,0Z"/>
      <path class="cls-1" d="M816.8,392.4h-14.8c-3.6,0-6.5-2.9-6.5-6.5v-123c0-3.6,2.9-6.5,6.5-6.5h14.8c3.6,0,6.5,2.9,6.5,6.5v123c0,3.6-2.9,6.5-6.5,6.5Z"/>
      <path class="cls-1" d="M751.3,327.4l-12.6-7.7c-3.1-1.9-4-5.9-2.2-8.9l63.8-105.2c1.9-3.1,5.9-4,8.9-2.2l12.6,7.7c3.1,1.9,4,5.9,2.2,8.9l-63.8,105.2c-1.9,3.1-5.9,4-8.9,2.2Z"/>
      <circle class="cls-3" cx="794.4" cy="77" r="51"/>
      <path class="cls-1" d="M766.8,94.4c-1.6-.5-3.1-1.4-4.4-2.6-1.7-1.7-2.6-4-2.4-6.4.1-1.7,1-3.3,2.4-4.2,1.8-1.2,4.3-1.2,6.7,0v-19.9c0,0,1.9,0,1.9,0v23.4c.1,0-1.4-1-1.4-1-1.8-1.1-4.3-1.9-6.1-.8-.9.6-1.5,1.6-1.5,2.7-.1,1.8.5,3.5,1.8,4.8,2.2,2.1,5.4,2.8,9.1,3.4l-.3,2c-2-.3-3.9-.7-5.8-1.3Z"/>
      <rect class="cls-1" x="752.7" y="56.5" width="2" height="10.8" transform="translate(593.7 801) rotate(-82.5)"/>
      <rect class="cls-1" x="786.4" y="60.9" width="2" height="10.8" transform="translate(618.6 838.3) rotate(-82.5)"/>
      <path class="cls-1" d="M837,295.9h-86c-4.7,0-8.5-3.8-8.5-8.5l18-138.1c0-4.7,3.8-8.4,8.5-8.4h30.5c25.4,0,46,20.6,46,46v100.5c0,4.7-3.8,8.5-8.5,8.5Z"/>
      <path class="cls-3" d="M911,241.5c1.1,2.3.7,5.1-1,7l-9.6,11.2c-2.3,2.7-6.5,3-9.2.7,0,0,0,0,0,0l-87.5-75.6c-5.8-5-6.4-13.8-1.4-19.6,5-5.8,13.8-6.4,19.6-1.4l87.5,75.6c.7.6,1.2,1.3,1.6,2.2Z"/>
      <path class="cls-1" d="M891.7,216.5c1.1,2.3.7,5.1-1,7l-16.5,19.1c-2.3,2.7-6.5,3-9.2.7l-71.9-62.1c-2.7-2.3-3-6.5-.7-9.2h0s16.5-19.1,16.5-19.1c2.3-2.7,6.5-3,9.2-.7,0,0,0,0,0,0l71.9,62.1c.7.6,1.2,1.3,1.6,2.2Z"/>
      <path class="cls-1" d="M795.4,46.8c-6.8-5.6-15.9-.3-23.6-1.1-7.4-.7-13.3-7.2-14.9-14.2-1.9-8.1,2.2-16.4,8.4-21.6,6.8-5.7,15.8-7.5,24.4-6.6,9.9,1,19,5.4,27.2,10.8,7.9,5.1,15.2,11,21.8,17.8,5.9,6.2,10.9,13.7,12.6,22.2,1.6,7.7.6,16.4-3.8,23-2.4,3.4-5.6,6.2-9.3,8-3.9,2-8.1,3.5-11.8,5.7-5.7,3.4-11.2,10.4-9.2,17.5.4,1.6,1.2,3,2.3,4.1,1.3,1.4,3.6-.5,2.3-1.9-2.3-2.5-2.3-5.8-1.1-8.9,1.4-3.4,3.9-6.3,7.1-8.1,3.9-2.4,8.3-3.9,12.4-6,3.9-2,7.2-4.9,9.8-8.4,4.8-6.9,6.1-15.8,4.8-24-1.4-8.8-6.1-16.8-11.9-23.5-6.4-7.2-14.1-13.3-22-18.7-8.5-5.8-17.8-10.7-28.1-12.4-8.9-1.4-18.5-.3-26.2,4.7-7.2,4.6-12.6,12.5-12.9,21.2-.3,8,3.9,15.6,10.8,19.7,3.5,2,7.5,2.8,11.5,2.4,4.3-.4,8.5-1.7,12.8-1.5,1.9,0,3.8.8,5.3,2,1.5,1.2,3.2-1.2,1.7-2.5h0Z"/>
      <path class="cls-1" d="M735.4,312.6c0-.1,0-.2,0-.3.4-1.7,1.4-3.2,2.8-4.1l12.4-8c3-1.9,7-1.1,9,1.9l38.3,59.3c1.9,3,1.1,7-1.9,9l-12.4,8c-3,1.9-7,1.1-9-1.9l-38.3-59.3c-.9-1.3-1.2-3-1-4.6Z"/>
    </g>
  </g>
</svg>