<?xml version="1.0" encoding="UTF-8"?>
<svg xmlns="http://www.w3.org/2000/svg" version="1.1" viewBox="0 0 1200 720">
  <defs>
    <style>
      .cls-1 {
        fill: #2f2e41;
      }

      .cls-2 {
        fill: #0097a7;
      }

      .cls-3 {
        fill: #3f3d56;
      }

      .cls-4 {
        isolation: isolate;
        opacity: .1;
      }

      .cls-5 {
        fill: #ccc;
      }

      .cls-6 {
        fill: #e6e6e6;
      }
    </style>
  </defs>
  <!-- Generator: Adobe Illustrator 28.6.0, SVG Export Plug-In . SVG Version: 1.2.0 Build 709)  -->
  <g>
    <g id="Layer_1">
      <g>
        <path class="cls-2" d="M607.6,652.7c-3.1,0-6.3,0-9.4-.1v-2.2c4.5.1,9,.2,13.5.1v2.2c-1.4,0-2.8,0-4.1,0ZM625.4,652.1v-2.2c4.3-.3,8.8-.6,13.3-1.1l.2,2.2c-4.5.5-9,.8-13.5,1.1h0ZM584.8,651.8c-4.5-.3-9-.8-13.5-1.3l.3-2.2c4.4.5,8.9,1,13.4,1.3l-.2,2.2ZM652.3,649.3l-.3-2.2c4.4-.7,8.9-1.4,13.2-2.3l.4,2.2c-4.4.9-8.9,1.7-13.3,2.3h0ZM557.9,648.5c-4.4-.8-8.9-1.6-13.3-2.6l.5-2.2c4.4.9,8.8,1.8,13.2,2.5l-.4,2.2ZM678.8,644l-.5-2.2c4.3-1.1,8.7-2.3,13-3.5l.6,2.2c-4.3,1.3-8.7,2.5-13.1,3.6h0ZM531.4,642.7c-4.3-1.2-8.7-2.4-13-3.8l.7-2.1c4.2,1.3,8.6,2.6,12.9,3.8l-.6,2.2ZM704.8,636.3l-.7-2.1c4.2-1.5,8.4-3,12.6-4.7l.8,2.1c-4.2,1.7-8.4,3.3-12.7,4.7h0ZM505.6,634.6c-4.2-1.6-8.5-3.2-12.6-5l.9-2.1c4.1,1.7,8.3,3.4,12.5,4.9l-.8,2.1ZM729.9,626.3l-.9-2c4-1.8,8.1-3.8,12.1-5.8l1,2c-4,2-8.1,4-12.2,5.9h0ZM480.5,624c-4.1-1.9-8.1-4-12.1-6.1l1.1-2c3.9,2.1,8,4.2,12,6.1l-1,2ZM754,614l-1.1-2c3.9-2.2,7.8-4.5,11.5-6.9l1.2,1.9c-3.8,2.4-7.7,4.7-11.6,7ZM456.6,611.3c-3.9-2.3-7.7-4.7-11.5-7.2l1.2-1.9c3.7,2.5,7.6,4.9,11.4,7.1l-1.2,1.9ZM776.9,599.5l-1.3-1.8c3.7-2.6,7.3-5.2,10.8-7.9l1.4,1.8c-3.6,2.7-7.2,5.4-10.9,8ZM434,596.3c-3.6-2.6-7.3-5.4-10.8-8.2l1.4-1.8c3.5,2.8,7.1,5.5,10.7,8.1l-1.3,1.8ZM798.3,583l-1.4-1.7c3.4-2.9,6.8-5.9,10.1-8.9l1.5,1.7c-3.3,3.1-6.7,6.1-10.1,9h0ZM412.8,579.4c-3.4-3-6.7-6-10-9.2l1.6-1.6c3.2,3.1,6.6,6.1,9.9,9.1l-1.5,1.7ZM818.2,564.6l-1.6-1.6c3.1-3.2,6.2-6.5,9.2-9.8l1.7,1.5c-3,3.3-6.1,6.7-9.3,9.9h0ZM393.3,560.7c-3.1-3.3-6.2-6.6-9.1-10l1.7-1.5c2.9,3.4,6,6.7,9,9.9l-1.6,1.6ZM836.3,544.5l-1.7-1.4c2.8-3.5,5.6-7,8.3-10.6l1.8,1.3c-2.7,3.6-5.5,7.2-8.4,10.7ZM375.5,540.2c-2.8-3.5-5.5-7.2-8.2-10.8l1.8-1.3c2.6,3.6,5.3,7.2,8.1,10.7l-1.8,1.4ZM852.6,522.8l-1.9-1.3c2.5-3.7,5-7.5,7.3-11.3l1.9,1.2c-2.4,3.8-4.8,7.7-7.4,11.4ZM359.7,518.3c-2.5-3.8-4.9-7.6-7.1-11.5l1.9-1.1c2.3,3.8,4.6,7.7,7.1,11.4l-1.9,1.2ZM866.7,499.7l-2-1.1c2.2-3.9,4.3-7.9,6.2-11.9l2,1c-2,4-4.1,8.1-6.3,12h0ZM346,495c-2.1-4-4.1-8-6-12.1l2-1c1.9,4,3.9,8.1,6,12l-2,1.1ZM878.8,475.4l-2.1-.9c1.8-4.1,3.5-8.3,5.1-12.5l2.1.8c-1.6,4.2-3.4,8.4-5.2,12.6h0ZM334.5,470.5c-1.7-4.1-3.4-8.4-4.9-12.6l2.1-.8c1.5,4.2,3.2,8.4,4.9,12.5l-2.1.9ZM888.5,450l-2.1-.7c1.4-4.2,2.7-8.6,3.9-12.9l2.2.6c-1.2,4.3-2.6,8.7-4,13h0ZM325.2,445.1c-1.3-4.3-2.6-8.7-3.7-13l2.2-.6c1.1,4.3,2.4,8.7,3.7,12.9l-2.1.7ZM895.8,424l-2.2-.5c1-4.3,1.9-8.8,2.7-13.2l2.2.4c-.8,4.4-1.7,8.9-2.8,13.3h0ZM318.3,418.9c-.9-4.4-1.8-8.9-2.5-13.3l2.2-.4c.7,4.4,1.6,8.8,2.5,13.2l-2.2.5ZM900.7,397.3l-2.2-.3c.6-4.4,1.1-8.9,1.5-13.4l2.2.2c-.4,4.5-.9,9-1.5,13.5h0ZM313.9,392.2c-.5-4.5-1-9-1.3-13.5l2.2-.2c.3,4.5.8,9,1.3,13.4l-2.2.3ZM903.2,370.4h-2.2c.2-4.6.3-9.1.3-13.5h2.2c0,4.5-.1,9-.3,13.5h0ZM311.9,365.2c0-2.8-.1-5.6-.1-8.4,0-1.7,0-3.5,0-5.2h2.2c0,1.8,0,3.5,0,5.2,0,2.8,0,5.6.1,8.3h-2.2ZM901.2,353.7c0-4.5-.2-9-.4-13.4h2.2c.2,4.4.4,8.9.4,13.4h-2.2ZM314.6,338.3h-2.2c.3-4.6.7-9.2,1.2-13.6l2.2.2c-.5,4.4-.9,8.9-1.1,13.4h0ZM899.7,326.9c-.4-4.4-1-8.9-1.7-13.3l2.2-.3c.7,4.4,1.2,9,1.7,13.4l-2.2.2ZM317.5,311.5l-2.2-.3c.7-4.5,1.5-8.9,2.4-13.3l2.2.4c-.9,4.4-1.7,8.8-2.4,13.2ZM895.8,300.3c-.9-4.4-1.8-8.8-2.9-13.1l2.2-.5c1.1,4.4,2,8.8,2.9,13.2l-2.2.4ZM322.9,285.2l-2.2-.5c1.1-4.4,2.3-8.8,3.6-13.1l2.2.6c-1.3,4.3-2.5,8.6-3.6,13ZM889.4,274.2c-1.3-4.3-2.6-8.6-4.1-12.8l2.1-.7c1.5,4.2,2.8,8.6,4.1,12.9l-2.2.6ZM330.6,259.4l-2.1-.7c1.5-4.3,3.1-8.5,4.8-12.7l2.1.8c-1.7,4.1-3.3,8.4-4.8,12.6h0ZM880.7,248.7c-1.6-4.1-3.4-8.3-5.2-12.4l2.1-.9c1.8,4.1,3.6,8.3,5.3,12.4l-2.1.8ZM340.7,234.5l-2-.9c1.9-4.1,3.9-8.2,5.9-12.2l2,1c-2,4-4,8-5.9,12.1ZM869.7,224.3c-2-4-4.1-8-6.3-11.8l2-1.1c2.2,3.9,4.4,7.9,6.4,11.9l-2,1ZM353.1,210.5l-1.9-1.1c2.2-3.9,4.6-7.8,7-11.6l1.9,1.2c-2.4,3.8-4.8,7.6-7,11.5h0ZM856.5,200.9c-2.4-3.8-4.9-7.6-7.4-11.2l1.8-1.3c2.6,3.7,5.1,7.5,7.5,11.3l-1.9,1.2ZM367.5,187.9l-1.8-1.3c2.6-3.7,5.3-7.3,8.1-10.9l1.8,1.4c-2.7,3.5-5.4,7.2-8,10.8ZM841.2,178.9c-2.7-3.6-5.5-7.1-8.4-10.5l1.7-1.4c2.9,3.4,5.7,7,8.5,10.6l-1.8,1.4ZM384,166.6l-1.7-1.5c2.9-3.4,5.9-6.8,9-10.1l1.6,1.5c-3,3.3-6.1,6.6-8.9,10ZM823.9,158.3c-3-3.3-6.2-6.5-9.3-9.7l1.6-1.6c3.2,3.2,6.3,6.4,9.4,9.8l-1.7,1.5ZM402.4,147l-1.6-1.6c3.2-3.1,6.5-6.3,9.9-9.2l1.5,1.7c-3.3,3-6.6,6.1-9.8,9.2h0ZM804.8,139.3c-3.3-3-6.7-6-10.2-8.8l1.4-1.7c3.5,2.9,6.9,5.8,10.2,8.9l-1.5,1.7ZM422.4,129.1l-1.4-1.7c3.5-2.8,7.1-5.6,10.7-8.3l1.3,1.8c-3.6,2.7-7.2,5.4-10.6,8.2ZM784.1,122.2c-3.6-2.7-7.2-5.3-10.9-7.8l1.3-1.9c3.7,2.5,7.4,5.2,11,7.9l-1.4,1.8ZM444,113.1l-1.3-1.9c3.7-2.5,7.6-5,11.4-7.3l1.2,1.9c-3.8,2.3-7.6,4.8-11.3,7.2ZM761.9,107c-3.8-2.4-7.7-4.6-11.6-6.8l1.1-2c3.9,2.2,7.9,4.5,11.7,6.9l-1.2,1.9ZM466.9,99.1l-1.1-2c3.9-2.2,8-4.2,12-6.2l1,2c-4,2-8,4-11.9,6.2h0ZM738.4,93.9c-4-2-8.1-3.9-12.2-5.7l.9-2.1c4.1,1.8,8.2,3.8,12.3,5.8l-1,2ZM491,87.3l-.9-2.1c4.1-1.8,8.3-3.5,12.5-5.1l.8,2.1c-4.2,1.6-8.3,3.3-12.4,5h0ZM713.8,83c-4.2-1.6-8.4-3.2-12.7-4.6l.7-2.1c4.3,1.4,8.6,3,12.8,4.6l-.8,2.1ZM516.1,77.8l-.7-2.1c4.3-1.4,8.6-2.7,13-3.9l.6,2.2c-4.3,1.2-8.6,2.5-12.9,3.9h0ZM688.3,74.5c-4.3-1.2-8.7-2.4-13-3.4l.5-2.2c4.4,1,8.8,2.2,13.1,3.4l-.6,2.2ZM542,70.6l-.5-2.2c4.4-1,8.8-1.9,13.3-2.7l.4,2.2c-4.4.8-8.8,1.7-13.2,2.7h0ZM662.1,68.3c-4.4-.8-8.8-1.6-13.3-2.2l.3-2.2c4.5.6,9,1.4,13.4,2.2l-.4,2.2ZM568.4,65.8l-.3-2.2c4.5-.6,9-1.1,13.5-1.5l.2,2.2c-4.4.4-8.9.9-13.4,1.5h0ZM635.5,64.6c-4.4-.4-8.9-.7-13.4-1v-2.2c4.6.2,9.2.5,13.6,1l-.2,2.2ZM595.2,63.5v-2.2c4-.2,8.3-.3,12.4-.3h1s0,2.3,0,2.3h-1c-4.1,0-8.3,0-12.4.3h0Z"/>
        <path class="cls-1" d="M608.3,651.1v-123c0-3.6,2.9-6.5,6.5-6.5h14.8c3.6,0,6.5,2.9,6.5,6.5v123c0,3.6-2.9,6.5-6.5,6.5h-14.8c-3.6,0-6.5-2.9-6.5-6.5Z"/>
        <path class="cls-1" d="M579.2,651.1v-123c0-3.6,2.9-6.5,6.5-6.5h14.8c3.6,0,6.5,2.9,6.5,6.5v123c0,3.6-2.9,6.5-6.5,6.5h-14.8c-3.6,0-6.5-2.9-6.5-6.5Z"/>
        <rect class="cls-1" x="571.8" y="487.5" width="71.8" height="79.5" rx="6" ry="6"/>
        <path class="cls-6" d="M507.2,294.2s-30.2,14-55.7,23.3c-15.8-35.8-38.7-34.4-38.7-34.4l-13.8,9.5,2.5,14.3-.7,23.4-3.6,12.2,5.2.9,2.9.5.4-.4c-.7,2.9-1,5.9-.9,8.9l130.8-20.4s-4.5-21.1-28.6-37.9Z"/>
        <rect class="cls-2" x="459.7" y="430.5" width="135" height="26.8" rx="6" ry="6" transform="translate(-160.6 400.3) rotate(-36.5)"/>
        <rect class="cls-2" x="648.8" y="389.4" width="26.8" height="135" rx="6" ry="6" transform="translate(-136.9 363.7) rotate(-28)"/>
        <path class="cls-5" d="M673.7,442.1l-21.3,14.1c-3.3,1.7-7.2.8-8.7-2.2l-23.5-44.3c-1.6-2.9-.2-6.7,3.1-8.4l14.5-7.7c3.3-1.7,7.2-.8,8.7,2.2l30.3,37.9c1.6,2.9.2,6.7-3.1,8.4Z"/>
        <path class="cls-5" d="M528.6,429.1l13.8,18.4c2.3,2.4,6.1,2.5,8.5.3l36.6-34.3c2.4-2.3,2.5-6.1.3-8.5l-10.1-10.8c-2.3-2.4-6.1-2.5-8.5-.3l-40.3,26.7c-2.4,2.3-2.5,6.1-.3,8.5h0Z"/>
        <rect class="cls-5" x="568.1" y="392.1" width="79.1" height="154.5" rx="6" ry="6"/>
        <circle class="cls-2" cx="607.2" cy="329.2" r="53.5"/>
        <path class="cls-1" d="M613.5,347.1c-3.3,0-7.4-.2-10.6-2.5-1.9-1.5-3.1-3.7-3.2-6.1-.1-1.7.6-3.4,1.9-4.5,1.7-1.4,4.1-1.7,6.7-1l-2.7-19.7,2-.3,3.2,23.2-1.7-.8c-1.9-.9-4.6-1.3-6.2,0-.8.7-1.2,1.8-1.2,2.9,0,1.8,1,3.4,2.4,4.5,2.5,1.8,5.7,2,9.5,2.1v2Z"/>
        <rect class="cls-1" x="585" y="315" width="10.8" height="2"/>
        <rect class="cls-1" x="619" y="315" width="10.8" height="2"/>
        <path class="cls-1" d="M571.9,287.4c-8.7-1-15.4-9.3-16.1-17.7-.9-10,5-19.6,13-25.2,8.4-5.9,18.8-8.3,28.9-8.9,19.7-1,39.1,5.4,54.3,17.9,7.6,6.3,14.6,14.3,17.3,24,2.3,8.4.4,17.9-6.3,23.8-3.4,2.9-7.8,4.3-12.3,3.8-5.2-.5-10.1-3.3-14.3-6.3-8.1-5.9-14.8-14.2-24.8-17.3-7.3-2.3-16.7-.3-21.2,6.3-1,1.5-1.7,3.2-1.9,5-.2.8.3,1.6,1,1.8.8.2,1.6-.3,1.8-1,1.2-8.3,11.4-11.4,18.5-9.5,10.4,2.8,17.4,12.1,26,18,4.5,3.1,9.6,5.6,15.1,6,4.8.4,9.5-1.1,13.2-4.1,7.3-5.8,10.1-15.7,8.5-24.6-1.9-10.4-8.8-19.2-16.5-26.1-15.5-13.8-35.6-21.2-56.3-20.8-10.6.2-21.6,2.4-30.7,8-8.8,5.4-15.7,14.5-16.6,25-.8,9.3,4.2,19,12.7,23,2,1,4.2,1.6,6.4,1.8,1.9.2,1.9-2.8,0-3h0Z"/>
        <path class="cls-5" d="M405.2,342.2l6.3-2c.7-1.3-.6-.5,0-1.7,16.1-34.3,1.2-55.3,1.2-55.3l-11.5,7.9c0,0,0-.1,0-.2,0,0-2-4.5-5.2-1.1,0,0,10,24.3-1.1,54.4l12.9,5.9,5-5.9v-.6c.1,0-8.8-.8-8.8-.8l1.2-.5Z"/>
        <path class="cls-3" d="M586.3,469.5c-51-11.3-98.5,12.1-98.5,12.1h-.1c0-.1-18.9-17-18.9-17l-73.9-120.6h18c50.1-29.8,120.6-25.7,120.6-25.7,30.4,34.5,52.8,151.2,52.8,151.2Z"/>
        <path class="cls-4" d="M487.7,481.5l-18.9-16.9-73.9-120.6h18c0,.1,71.9,95,74.8,137.5Z"/>
        <ellipse class="cls-2" cx="490.5" cy="369.6" rx="29.3" ry="18.6" transform="translate(-86.8 160.1) rotate(-17.1)"/>
        <path class="cls-5" d="M338,285.5c-4.1,15.1-18,24.4-18,24.4,0,0-7.3-15.1-3.3-30.1s18-24.4,18-24.4c0,0,7.3,15.1,3.3,30.1Z"/>
        <path class="cls-5" d="M301,285.5c4.1,15.1,18,24.4,18,24.4,0,0,7.3-15.1,3.3-30.1s-18-24.4-18-24.4c0,0-7.3,15.1-3.3,30.1Z"/>
        <path class="cls-3" d="M307,282.3c11.2,10.9,12.5,27.6,12.5,27.6,0,0-16.8-.9-27.9-11.8s-12.5-27.6-12.5-27.6c0,0,16.8.9,27.9,11.8Z"/>
        <path class="cls-3" d="M332,282.3c-11.2,10.9-12.5,27.6-12.5,27.6,0,0,16.8-.9,27.9-11.8s12.5-27.6,12.5-27.6c0,0-16.8.9-27.9,11.8Z"/>
        <path class="cls-5" d="M899,455.5c-4.1,15.1-18,24.4-18,24.4,0,0-7.3-15.1-3.3-30.1s18-24.4,18-24.4c0,0,7.3,15.1,3.3,30.1Z"/>
        <path class="cls-5" d="M862,455.5c4.1,15.1,18,24.4,18,24.4,0,0,7.3-15.1,3.3-30.1s-18-24.4-18-24.4c0,0-7.3,15.1-3.3,30.1Z"/>
        <path class="cls-3" d="M868,452.3c11.2,10.9,12.5,27.6,12.5,27.6,0,0-16.8-.9-27.9-11.8s-12.5-27.6-12.5-27.6c0,0,16.8.9,27.9,11.8Z"/>
        <path class="cls-3" d="M893,452.3c-11.2,10.9-12.5,27.6-12.5,27.6,0,0,16.8-.9,27.9-11.8s12.5-27.6,12.5-27.6c0,0-16.8.9-27.9,11.8Z"/>
        <rect class="cls-2" x="493" y="657" width="232" height="2"/>
      </g>
    </g>
  </g>
</svg>