<?xml version="1.0" encoding="UTF-8"?>
<svg xmlns="http://www.w3.org/2000/svg" version="1.1" viewBox="0 0 1200 720">
  <defs>
    <style>
      .cls-1 {
        fill: #2f2e41;
      }

      .cls-2 {
        fill: #fff;
      }

      .cls-3 {
        fill: #0097a7;
      }

      .cls-4 {
        fill: #3f3d56;
      }
    </style>
  </defs>
  <!-- Generator: Adobe Illustrator 28.6.0, SVG Export Plug-In . SVG Version: 1.2.0 Build 709)  -->
  <g>
    <g id="Layer_1">
      <g>
        <path class="cls-1" d="M832.5,348.8h-187.2c-4.3,0-8.4-1.6-11.6-4.4l-77.1-68c-2.6-2.3-6.1-3.6-9.6-3.6h-66.5V43.2c0-9.1,7.4-16.5,16.5-16.5h319c9.1,0,16.5,7.4,16.5,16.5v305.5Z"/>
        <circle class="cls-2" cx="557" cy="98.2" r="35"/>
        <path class="cls-2" d="M693,79.5h-65c-2.5,0-4.5,2-4.5,4.5s2,4.5,4.5,4.5h65c2.5,0,4.5-2,4.5-4.5s-2-4.5-4.5-4.5Z"/>
        <path class="cls-2" d="M787.3,108h-160.2c-2,0-3.6,2-3.6,4.5s1.6,4.5,3.6,4.5h160.2c2,0,3.6-2,3.6-4.5s-1.6-4.5-3.6-4.5Z"/>
        <path class="cls-2" d="M774.7,168.2h-236.5c-1.9,0-3.5,2-3.5,4.5s1.6,4.5,3.5,4.5h236.5c1.9,0,3.5-2,3.5-4.5s-1.6-4.5-3.5-4.5Z"/>
        <path class="cls-2" d="M774.7,196.2h-236.5c-1.9,0-3.5,2-3.5,4.5s1.6,4.5,3.5,4.5h236.5c1.9,0,3.5-2,3.5-4.5s-1.6-4.5-3.5-4.5Z"/>
        <path class="cls-2" d="M774.7,224.2h-236.5c-1.9,0-3.5,2-3.5,4.5s1.6,4.5,3.5,4.5h236.5c1.9,0,3.5-2,3.5-4.5s-1.6-4.5-3.5-4.5Z"/>
        <path class="cls-2" d="M774.7,252.2h-236.5c-1.9,0-3.5,2-3.5,4.5s1.6,4.5,3.5,4.5h236.5c1.9,0,3.5-2,3.5-4.5s-1.6-4.5-3.5-4.5Z"/>
        <path class="cls-3" d="M987.5,348.8h-342.2c-3.4,0-6.7-1-9.6-2.9h-.2V112.2c0-9.1,7.4-16.5,16.5-16.5h319c9.1,0,16.5,7.4,16.5,16.5v236.5Z"/>
        <circle class="cls-2" cx="712" cy="167.2" r="35"/>
        <path class="cls-2" d="M848,148.5h-65c-2.5,0-4.5,2-4.5,4.5s2,4.5,4.5,4.5h65c2.5,0,4.5-2,4.5-4.5s-2-4.5-4.5-4.5Z"/>
        <path class="cls-2" d="M942.3,177h-160.2c-2,0-3.6,2-3.6,4.5s1.6,4.5,3.6,4.5h160.2c2,0,3.6-2,3.6-4.5s-1.6-4.5-3.6-4.5Z"/>
        <path class="cls-2" d="M929.7,237.2h-236.5c-1.9,0-3.5,2-3.5,4.5s1.6,4.5,3.5,4.5h236.5c1.9,0,3.5-2,3.5-4.5s-1.6-4.5-3.5-4.5Z"/>
        <path class="cls-2" d="M929.7,265.2h-236.5c-1.9,0-3.5,2-3.5,4.5s1.6,4.5,3.5,4.5h236.5c1.9,0,3.5-2,3.5-4.5s-1.6-4.5-3.5-4.5Z"/>
        <path class="cls-2" d="M929.7,293.2h-236.5c-1.9,0-3.5,2-3.5,4.5s1.6,4.5,3.5,4.5h236.5c1.9,0,3.5-2,3.5-4.5s-1.6-4.5-3.5-4.5Z"/>
        <path class="cls-2" d="M929.7,321.2h-236.5c-1.9,0-3.5,2-3.5,4.5s1.6,4.5,3.5,4.5h236.5c1.9,0,3.5-2,3.5-4.5s-1.6-4.5-3.5-4.5Z"/>
        <path class="cls-4" d="M997,346.2h-351.7c-3.4,0-6.7-1.1-9.3-3.2-.2-.2-.4-.3-.6-.5l-29.8-26.2-47.3-41.8c-3.1-2.7-7.1-4.3-11.2-4.2h-86c-9.4,0-17,7.6-17,17v389c0,9.4,7.6,17,17,17h536c9.4,0,17-7.6,17-17v-313c0-9.4-7.6-17-17-17ZM1012,676.2c0,8.3-6.7,15-15,15H461c-8.3,0-15-6.7-15-15v-389c0-8.3,6.7-15,15-15h86c3.7,0,7.2,1.3,9.9,3.8l45.6,40.2,31.5,27.8c3.1,2.7,7.1,4.2,11.2,4.2h351.7c8.3,0,15,6.7,15,15v313Z"/>
        <path class="cls-1" d="M884,624.2h-294c-8.3,0-15-6.7-15-15v-162c0-8.3,6.7-15,15-15h294c8.3,0,15,6.7,15,15v162c0,8.3-6.7,15-15,15ZM590,434.2c-7.2,0-13,5.8-13,13v162c0,7.2,5.8,13,13,13h294c7.2,0,13-5.8,13-13v-162c0-7.2-5.8-13-13-13h-294Z"/>
        <circle class="cls-1" cx="637.5" cy="492.2" r="35"/>
        <path class="cls-1" d="M773.5,473.5h-65c-2.5,0-4.5,2-4.5,4.5s2,4.5,4.5,4.5h65c2.5,0,4.5-2,4.5-4.5s-2-4.5-4.5-4.5Z"/>
        <path class="cls-1" d="M867.8,502h-160.2c-2,0-3.6,2-3.6,4.5s1.6,4.5,3.6,4.5h160.2c2,0,3.6-2,3.6-4.5s-1.6-4.5-3.6-4.5Z"/>
        <path class="cls-1" d="M855.2,562.2h-236.5c-1.9,0-3.5,2-3.5,4.5s1.6,4.5,3.5,4.5h236.5c1.9,0,3.5-2,3.5-4.5s-1.6-4.5-3.5-4.5Z"/>
        <path class="cls-1" d="M855.2,590.2h-236.5c-1.9,0-3.5,2-3.5,4.5s1.6,4.5,3.5,4.5h236.5c1.9,0,3.5-2,3.5-4.5s-1.6-4.5-3.5-4.5Z"/>
        <path class="cls-3" d="M335.2,465.9c-.7,0-1.5-.1-2.1-.3-1.8-.6-3.2-1.8-4.1-3.5l-6.8-13.1c-1.8-3.4-.4-7.7,3-9.4l109.3-56.4c3.4-1.8,7.7-.4,9.4,3l6.8,13.1c1.8,3.4.4,7.7-3,9.4l-109.3,56.4c-1,.5-2.1.8-3.2.8Z"/>
        <path class="cls-1" d="M374.9,414.8c.3.4.5.8.7,1.3l11.6,25.2c1.6,3.5,0,7.7-3.6,9.2,0,0,0,0,0,0l-38.9,13.6c-8.4,2.9-17.6-.9-21.5-8.8l.4-.2-.4.2c-4.1-8.4-.9-18.5,7.3-23l35.8-19.8c3-1.4,6.6-.4,8.5,2.3h0Z"/>
        <circle class="cls-3" cx="289.3" cy="352.8" r="53.5"/>
        <path class="cls-3" d="M288.9,692.7h-14.8c-3.9,0-7-3.1-7-7v-123c0-3.9,3.1-7,7-7h14.8c3.9,0,7,3.1,7,7v123c0,3.9-3.1,7-7,7Z"/>
        <path class="cls-3" d="M320.9,692.7h-14.8c-3.9,0-7-3.1-7-7v-123c0-3.9,3.1-7,7-7h14.8c3.9,0,7,3.1,7,7v123c0,3.9-3.1,7-7,7Z"/>
        <path class="cls-1" d="M374.5,535.4c0,43.6-41,57.7-84.7,57.7s-73.3-14.1-73.3-57.7,29.4-118,73-118,85,74.4,85,118Z"/>
        <path class="cls-1" d="M288.2,372.7v-2c3.7-.1,6.9-.3,9.4-2.1,1.4-1.1,2.3-2.7,2.4-4.5,0-1.1-.3-2.2-1.2-2.9-1.6-1.4-4.3-.9-6.2,0l-1.7.8,3.2-23.2,2,.3-2.7,19.7c2.6-.8,5-.4,6.7,1,1.3,1.1,2,2.8,1.9,4.5-.1,2.4-1.3,4.6-3.2,6.1-3.2,2.3-7.3,2.4-10.6,2.5Z"/>
        <rect class="cls-1" x="305.9" y="340.6" width="10.8" height="2"/>
        <rect class="cls-1" x="271.9" y="340.6" width="10.8" height="2"/>
        <path class="cls-1" d="M246.6,338.1c4.2-6.3,11.5-8.9,18.7-9.6,8.1-.7,16,.8,23.9,2.4,8.7,1.7,18,3.2,26.8,1.1,7.9-1.8,14.5-7.2,17.9-14.5,3.2-7.1,3.9-15,2-22.5-2.1-8-7.2-15-13.4-20.3-12.7-10.8-29.8-15.7-46.3-15.2-16.4.4-32.3,6-45.4,16-13.1,10.3-22.3,24.8-26.1,41-4,16.1-2.7,33,3.7,48.3,3.6,8.4,8.8,15.9,12.9,24.1,3.7,7.6,6.6,16.4,4.3,24.9-2,7.4-8.1,14-15.6,16.1-7.2,1.9-14.3-1.2-18.2-7.4-3.8-5.9-3.9-13.7,1.8-18.5,5.8-5,14.6-4.4,19.6,1.5.2.2.3.4.4.5,2.3,3,3.3,6.8,2.9,10.5-.3,1.9,2.6,2.7,2.9.8,1.6-9.2-4.6-18-13.8-19.5-7.1-1.2-14.3,2.2-17.7,8.6-3.4,6.4-1.6,14.2,2.8,19.7,4.6,6,12.2,8.7,19.5,7,7.9-1.8,14.3-8.1,17.4-15.5,3.4-8.2,1.8-17.4-1.5-25.3-3.6-8.6-8.8-16.3-13-24.6-3.8-7.5-6.2-15.6-7.1-24-1.8-16.8,2-33.7,10.8-48,9-14.1,22.8-24.6,38.8-29.5,15.8-5,33.2-4.8,48.7,1.3,15.2,6,30,19.1,29.8,36.7,0,7.5-2.9,15.2-8.6,20.2-6.9,6-16.4,6.5-25.1,5.6-8.7-.9-17.1-3.5-25.9-4.1-7.6-.6-15.8,0-22.6,3.8-3.2,1.8-5.8,4.3-7.8,7.3-1.1,1.6,1.5,3.1,2.6,1.5h0Z"/>
        <path class="cls-3" d="M231.2,589c-.4,0-.7,0-1.1,0l-14.6-2.2c-3.8-.6-6.4-4.2-5.9-8l18.5-121.6c.6-3.8,4.2-6.4,8-5.9l14.6,2.2c3.8.6,6.4,4.2,5.9,8l-18.5,121.6c-.5,3.4-3.5,5.9-6.9,5.9Z"/>
        <path class="cls-1" d="M248.6,506.1c-.5,0-1,0-1.5-.2l-27.2-5.5c-3.8-.8-6.2-4.5-5.4-8.3,0,0,0,0,0,0l11.8-39.4c2.6-8.5,11-13.7,19.8-12.2v.5c0,0,0-.5,0-.5,9.2,1.6,15.5,10.1,14.3,19.4l-5,40.6c-.7,3.2-3.5,5.6-6.8,5.6h0Z"/>
        <path class="cls-4" d="M377.9,693.2h-157c-.6,0-1-.4-1-1s.4-1,1-1h157c.6,0,1,.4,1,1s-.4,1-1,1Z"/>
      </g>
    </g>
  </g>
</svg>