<?xml version="1.0" encoding="UTF-8"?>
<svg xmlns="http://www.w3.org/2000/svg" version="1.1" viewBox="0 0 145 145">
  <defs>
    <style>
      .cls-1 {
        fill: #e4b692;
      }

      .cls-2 {
        fill: #fff;
      }

      .cls-3 {
        fill: #0097a7;
      }

      .cls-4 {
        fill: #303030;
      }

      .cls-5 {
        fill: #ddac8c;
        isolation: isolate;
        opacity: .1;
      }

      .cls-6 {
        fill: #f1c9a5;
      }

      .cls-7 {
        fill: #00acc1;
      }
    </style>
  </defs>
  <!-- Generator: Adobe Illustrator 28.6.0, SVG Export Plug-In . SVG Version: 1.2.0 Build 709)  -->
  <g>
    <g id="Layer_1">
      <circle class="cls-2" cx="72.5" cy="72.5" r="58"/>
      <g>
        <g>
          <path class="cls-6" d="M111.7,113.5c-5.3-10-39.2-16.3-39.2-16.3,0,0-34,6.3-39.2,16.3-3.9,13.9-7.2,31.5-7.2,31.5h92.8s-2.2-18.9-7.2-31.5Z"/>
          <path class="cls-1" d="M72.5,97.2s34,6.3,39.2,16.3c5,12.6,7.2,31.5,7.2,31.5h-46.4v-47.8Z"/>
          <rect class="cls-6" x="63.3" y="76.9" width="18.5" height="30.9"/>
          <rect class="cls-1" x="72.5" y="76.9" width="9.2" height="30.9"/>
          <path class="cls-5" d="M63.3,91.2c1.7,4.8,8.4,7.5,13.3,7.5s3.5-.3,5.2-.8v-21h-18.5v14.3Z"/>
          <path class="cls-6" d="M96.3,57.4c0-19.3-10.6-30.3-23.8-30.3s-23.8,11-23.8,30.3,10.6,35,23.8,35,23.8-10.1,23.8-35Z"/>
          <path class="cls-1" d="M92.6,70.8c-4.3-.5-7.2-5.1-6.5-10.4.7-5.3,4.8-9.2,9.1-8.7,4.3.4,7.2,5.1,6.5,10.4-.7,5.3-4.8,9.2-9.1,8.7Z"/>
          <path class="cls-6" d="M43.4,62c-.7-5.3,2.2-9.9,6.5-10.4,4.3-.4,8.4,3.5,9.1,8.7.7,5.3-2.2,9.9-6.5,10.4-4.3.4-8.4-3.5-9.1-8.7Z"/>
          <path class="cls-1" d="M96.3,57.4c0-19.3-10.6-30.3-23.8-30.3v65.3c13.1,0,23.8-10.1,23.8-35Z"/>
        </g>
        <path class="cls-7" d="M72.5,115.3v29.7H26.1s3.3-17.6,7.2-31.5c3.1-5.8,15.9-10.4,26.1-13.2l13.1,15Z"/>
        <path class="cls-3" d="M118.9,145h-46.4v-29.7l13.1-15c10.2,2.8,23,7.3,26.1,13.2,5,12.6,7.2,31.5,7.2,31.5Z"/>
        <path class="cls-4" d="M52.6,66.6s16.8-11.5,18.8-17.8c-.2,5.7,0,10.9,0,10.9,0,0,16.4-16.2,14.8-29.4-18.6-9.9-33,1.6-36.3,6.9-3.4,5.3-4.1,20.1,2.8,29.4Z"/>
        <path class="cls-4" d="M83.8,35.6s7.7,9.3,9.3,27.9c5.5-8.1,11.5-31.6-6.9-33.2-1.6,3-2.4,5.3-2.4,5.3Z"/>
        <path class="cls-2" d="M89.5,118.5l-10.3-9.5-6.7,6.4,11.2-15.9s3.6.4,4.9,4.4c.4,6.2.9,14.7.9,14.7Z"/>
        <polygon class="cls-2" points="68.9 145 72.5 145 72.5 115.3 68.9 111.9 68.9 145"/>
        <path class="cls-2" d="M55.5,118.5l10.3-9.5,6.7,6.4-11.2-15.9s-3.6.4-4.9,4.4c-.4,6.2-.9,14.7-.9,14.7Z"/>
      </g>
    </g>
  </g>
</svg>