<?xml version="1.0" encoding="UTF-8"?>
<svg xmlns="http://www.w3.org/2000/svg" version="1.1" viewBox="0 0 145 145">
  <defs>
    <style>
      .cls-1 {
        fill: #e4b692;
      }

      .cls-2 {
        fill: #fff;
      }

      .cls-3 {
        fill: #0097a7;
      }

      .cls-4 {
        fill: none;
      }

      .cls-5 {
        fill: #303030;
      }

      .cls-6 {
        fill: #ddac8c;
        isolation: isolate;
        opacity: .1;
      }

      .cls-7 {
        fill: #f1c9a5;
      }

      .cls-8 {
        fill: #00acc1;
      }
    </style>
  </defs>
  <!-- Generator: Adobe Illustrator 28.6.0, SVG Export Plug-In . SVG Version: 1.2.0 Build 709)  -->
  <g>
    <g id="Layer_1">
      <circle class="cls-2" cx="72.5" cy="72.5" r="58"/>
      <g>
        <path class="cls-7" d="M104.9,115.5c-5-9.4-36.8-15.3-36.8-15.3,0,0-31.8,5.9-36.8,15.3-3.7,13-6.7,29.5-6.7,29.5h87s-2.1-17.7-6.7-29.5Z"/>
        <path class="cls-1" d="M68.1,100.2s31.8,5.9,36.8,15.3c4.7,11.8,6.7,29.5,6.7,29.5h-43.5v-44.8Z"/>
        <rect class="cls-7" x="59.4" y="81.1" width="17.3" height="29"/>
        <rect class="cls-1" x="68.1" y="81.1" width="8.7" height="29"/>
        <path class="cls-6" d="M59.4,94.6c1.6,4.5,7.9,7,12.5,7s3.3-.3,4.9-.8v-19.7h-17.3v13.4Z"/>
        <path class="cls-7" d="M90.4,62.8c0-18.1-10-28.4-22.3-28.4s-22.3,10.3-22.3,28.4,10,32.8,22.3,32.8,22.3-14.7,22.3-32.8Z"/>
        <path class="cls-1" d="M87,75.4c-4-.5-6.8-5.1-6.1-10.3.7-5.3,4.5-9.2,8.5-8.7,4,.4,6.8,5.1,6.1,10.3-.7,5.3-4.5,9.2-8.5,8.7Z"/>
        <path class="cls-7" d="M40.8,66.7c-.7-5.3,2-9.9,6.1-10.3,4-.4,7.9,3.5,8.5,8.7.7,5.3-2,9.9-6.1,10.3-4,.4-7.9-3.5-8.5-8.7Z"/>
        <path class="cls-1" d="M90.4,62.8c0-18.1-10-28.4-22.3-28.4v61.2c12.3,0,22.3-14.7,22.3-32.8Z"/>
        <path class="cls-5" d="M57.5,87.7s-9.6-7.8-7.5-18.2c2.1-10.3,7.5-12.1,7.5-16.7,8.9,10.7,16.7,18.2,31,14.2,4.3,2.5-1.1,15.3-7.5,22.1,18.2-10,39.2-46.6-4.6-60.9-43.8-14.2-56.3,57.3-18.9,59.5Z"/>
        <path class="cls-3" d="M68.1,45.6c11.5,0,21.1,8.3,23,19.3.2-1.3.4-2.7.4-4.1,0-12.9-10.5-23.4-23.4-23.4s-23.4,10.5-23.4,23.4.1,2.8.4,4.1c1.9-10.9,11.5-19.3,23-19.3Z"/>
        <path class="cls-8" d="M51.1,104.5c3.1,1.7,10.4,5.2,17,5.2s20-4.2,20-4.2l-1.6-.4c-3.5-1.2-7.1-2.1-10.1-2.9-8.6,5.2-17,0-17,0-2.5.6-5.4,1.4-8.3,2.3Z"/>
        <path class="cls-8" d="M68.1,126v19H24.6s3.1-16.5,6.7-29.5c1.7-3.2,6.4-5.9,12-8.2,3.1,10.8,13,18.8,24.8,18.8Z"/>
        <path class="cls-3" d="M111.6,145h-43.5v-19c11.8,0,21.8-7.9,24.8-18.8,5.6,2.3,10.3,5,12,8.2,4.7,11.8,6.7,29.5,6.7,29.5Z"/>
        <line class="cls-4" x1="68.1" y1="126" x2="68.1" y2="118.5"/>
        <path class="cls-8" d="M118.6,98.7c-4.8-1.7-12.4,2-17.4,1.5-5.5-.5-8.4,3.2-11.8,2.5-6.5-1.3-7.1,1-7.1,1,0,0-1.6-3.2,4.9-2.1,6.5,1,11.4-2.1,12.9-4,2.2-3,9.7-2.3,9.7-2.3l-3.9-4.5c-2.7-.5-6.8-.2-9,3.6s-4.2,4.2-10.4,3.5-10.1,4.1-10.1,4.1l11.7,3.4s2.4.7,4.9.6c2.5,0,5.1-2.6,10.2-2.2,5.5.4,10.6-2.3,17.1.2l-1.8-5.3Z"/>
      </g>
    </g>
  </g>
</svg>